<mxfile host="app.diagrams.net" modified="2021-09-16T03:36:01.901Z" agent="5.0 (Windows NT 10.0; Win64; x64) AppleWebKit/537.36 (KHTML, like Gecko) Chrome/93.0.4577.63 Safari/537.36" etag="f6HK150GefIVpJOijZHE" version="14.7.7" type="github">
  <diagram id="o4qf7e6weDutlTuTzYAn" name="Page-1">
    <mxGraphModel dx="1001" dy="698" grid="1" gridSize="10" guides="1" tooltips="1" connect="1" arrows="1" fold="1" page="1" pageScale="1" pageWidth="1100" pageHeight="850" math="0" shadow="0">
      <root>
        <mxCell id="0" />
        <mxCell id="1" parent="0" />
        <mxCell id="rUYwuLHTmjwuJFgybunh-5" style="edgeStyle=orthogonalEdgeStyle;rounded=0;orthogonalLoop=1;jettySize=auto;html=1;fontFamily=Gloria Hallelujah;fontSource=https%3A%2F%2Ffonts.googleapis.com%2Fcss%3Ffamily%3DGloria%2BHallelujah;fontSize=14;entryX=0.5;entryY=0;entryDx=0;entryDy=0;sketch=1;" edge="1" parent="1" source="rUYwuLHTmjwuJFgybunh-1" target="rUYwuLHTmjwuJFgybunh-6">
          <mxGeometry relative="1" as="geometry">
            <mxPoint x="200" y="540" as="targetPoint" />
          </mxGeometry>
        </mxCell>
        <mxCell id="rUYwuLHTmjwuJFgybunh-1" value="API Gateway&lt;br&gt;SESF" style="rounded=0;whiteSpace=wrap;html=1;sketch=1;fontFamily=Gloria Hallelujah;fontSource=https%3A%2F%2Ffonts.googleapis.com%2Fcss%3Ffamily%3DGloria%2BHallelujah;fontSize=14;glass=0;shadow=0;" vertex="1" parent="1">
          <mxGeometry x="140" y="310" width="120" height="60" as="geometry" />
        </mxCell>
        <mxCell id="rUYwuLHTmjwuJFgybunh-14" style="edgeStyle=none;rounded=0;orthogonalLoop=1;jettySize=auto;html=1;entryX=0.5;entryY=0;entryDx=0;entryDy=0;fontFamily=Gloria Hallelujah;fontSource=https%3A%2F%2Ffonts.googleapis.com%2Fcss%3Ffamily%3DGloria%2BHallelujah;fontSize=14;sketch=1;" edge="1" parent="1" source="rUYwuLHTmjwuJFgybunh-2" target="rUYwuLHTmjwuJFgybunh-1">
          <mxGeometry relative="1" as="geometry" />
        </mxCell>
        <mxCell id="rUYwuLHTmjwuJFgybunh-15" value="Call Service as like external customer" style="edgeLabel;html=1;align=center;verticalAlign=middle;resizable=0;points=[];fontSize=14;fontFamily=Gloria Hallelujah;rotation=-30;" vertex="1" connectable="0" parent="rUYwuLHTmjwuJFgybunh-14">
          <mxGeometry x="-0.1486" y="2" relative="1" as="geometry">
            <mxPoint x="-38" y="-10" as="offset" />
          </mxGeometry>
        </mxCell>
        <mxCell id="rUYwuLHTmjwuJFgybunh-2" value="Internet" style="ellipse;shape=cloud;whiteSpace=wrap;html=1;sketch=1;fontFamily=Gloria Hallelujah;fontSource=https%3A%2F%2Ffonts.googleapis.com%2Fcss%3Ffamily%3DGloria%2BHallelujah;fontSize=21;" vertex="1" parent="1">
          <mxGeometry x="390" y="60" width="240" height="150" as="geometry" />
        </mxCell>
        <mxCell id="rUYwuLHTmjwuJFgybunh-3" value="" style="endArrow=none;html=1;fontFamily=Gloria Hallelujah;fontSource=https%3A%2F%2Ffonts.googleapis.com%2Fcss%3Ffamily%3DGloria%2BHallelujah;fontSize=14;" edge="1" parent="1">
          <mxGeometry width="50" height="50" relative="1" as="geometry">
            <mxPoint x="30" y="240" as="sourcePoint" />
            <mxPoint x="970" y="240" as="targetPoint" />
            <Array as="points" />
          </mxGeometry>
        </mxCell>
        <mxCell id="rUYwuLHTmjwuJFgybunh-4" value="" style="endArrow=none;dashed=1;html=1;fontFamily=Gloria Hallelujah;fontSource=https%3A%2F%2Ffonts.googleapis.com%2Fcss%3Ffamily%3DGloria%2BHallelujah;fontSize=14;" edge="1" parent="1">
          <mxGeometry width="50" height="50" relative="1" as="geometry">
            <mxPoint x="520" y="620" as="sourcePoint" />
            <mxPoint x="520" y="250" as="targetPoint" />
          </mxGeometry>
        </mxCell>
        <mxCell id="rUYwuLHTmjwuJFgybunh-10" style="rounded=0;orthogonalLoop=1;jettySize=auto;html=1;entryX=0;entryY=0.5;entryDx=0;entryDy=0;fontFamily=Gloria Hallelujah;fontSource=https%3A%2F%2Ffonts.googleapis.com%2Fcss%3Ffamily%3DGloria%2BHallelujah;fontSize=14;exitX=1;exitY=0.5;exitDx=0;exitDy=0;sketch=1;" edge="1" parent="1" source="rUYwuLHTmjwuJFgybunh-6" target="rUYwuLHTmjwuJFgybunh-7">
          <mxGeometry relative="1" as="geometry" />
        </mxCell>
        <mxCell id="rUYwuLHTmjwuJFgybunh-11" value="Initiate Test Call" style="edgeLabel;html=1;align=center;verticalAlign=middle;resizable=0;points=[];fontSize=14;fontFamily=Gloria Hallelujah;rotation=-25;" vertex="1" connectable="0" parent="rUYwuLHTmjwuJFgybunh-10">
          <mxGeometry x="0.0861" y="-2" relative="1" as="geometry">
            <mxPoint x="23" y="13" as="offset" />
          </mxGeometry>
        </mxCell>
        <mxCell id="rUYwuLHTmjwuJFgybunh-6" value="Test Harness&lt;br&gt;ESF" style="rounded=0;whiteSpace=wrap;html=1;sketch=1;fontFamily=Gloria Hallelujah;fontSource=https%3A%2F%2Ffonts.googleapis.com%2Fcss%3Ffamily%3DGloria%2BHallelujah;fontSize=14;glass=0;shadow=0;" vertex="1" parent="1">
          <mxGeometry x="140" y="560" width="120" height="60" as="geometry" />
        </mxCell>
        <mxCell id="rUYwuLHTmjwuJFgybunh-12" style="edgeStyle=none;rounded=0;orthogonalLoop=1;jettySize=auto;html=1;entryX=0.8;entryY=0.8;entryDx=0;entryDy=0;entryPerimeter=0;fontFamily=Gloria Hallelujah;fontSource=https%3A%2F%2Ffonts.googleapis.com%2Fcss%3Ffamily%3DGloria%2BHallelujah;fontSize=14;sketch=1;" edge="1" parent="1" source="rUYwuLHTmjwuJFgybunh-7" target="rUYwuLHTmjwuJFgybunh-2">
          <mxGeometry relative="1" as="geometry" />
        </mxCell>
        <mxCell id="rUYwuLHTmjwuJFgybunh-13" value="Redirect to Internet" style="edgeLabel;html=1;align=center;verticalAlign=middle;resizable=0;points=[];fontSize=14;fontFamily=Gloria Hallelujah;rotation=65;" vertex="1" connectable="0" parent="rUYwuLHTmjwuJFgybunh-12">
          <mxGeometry x="0.1993" y="-3" relative="1" as="geometry">
            <mxPoint x="34" y="13" as="offset" />
          </mxGeometry>
        </mxCell>
        <mxCell id="rUYwuLHTmjwuJFgybunh-7" value="Test Service&lt;br&gt;SESF" style="rounded=0;whiteSpace=wrap;html=1;sketch=1;fontFamily=Gloria Hallelujah;fontSource=https%3A%2F%2Ffonts.googleapis.com%2Fcss%3Ffamily%3DGloria%2BHallelujah;fontSize=14;glass=0;shadow=0;" vertex="1" parent="1">
          <mxGeometry x="630" y="390" width="120" height="60" as="geometry" />
        </mxCell>
        <mxCell id="rUYwuLHTmjwuJFgybunh-8" value="Chase" style="text;html=1;resizable=0;autosize=1;align=center;verticalAlign=middle;points=[];fillColor=none;strokeColor=none;rounded=0;shadow=0;glass=0;sketch=1;fontFamily=Gloria Hallelujah;fontSource=https%3A%2F%2Ffonts.googleapis.com%2Fcss%3Ffamily%3DGloria%2BHallelujah;fontSize=14;" vertex="1" parent="1">
          <mxGeometry x="435" y="260" width="50" height="20" as="geometry" />
        </mxCell>
        <mxCell id="rUYwuLHTmjwuJFgybunh-9" value="AWS" style="text;html=1;resizable=0;autosize=1;align=center;verticalAlign=middle;points=[];fillColor=none;strokeColor=none;rounded=0;shadow=0;glass=0;sketch=1;fontFamily=Gloria Hallelujah;fontSource=https%3A%2F%2Ffonts.googleapis.com%2Fcss%3Ffamily%3DGloria%2BHallelujah;fontSize=14;" vertex="1" parent="1">
          <mxGeometry x="555" y="260" width="40" height="20" as="geometry" />
        </mxCell>
      </root>
    </mxGraphModel>
  </diagram>
</mxfile>
